**ABCDEFGHIJKLMNOPQRSTUVWXYZabcdefghijklmnopqrstuvwxyz**************************
**PARASOLID !"#$%&'()*+,-./:;<=>?@[\]^_`{|}~0123456789**************************
**PART1;
MC=x64/Windows NT;
MC_MODEL=genuineintel family 6 model 7 stepping 2, 12th gen intel(r) core(tm) i7-12700;
MC_ID=desktop-rala3mc;
OS=windows nt (x64);
OS_RELEASE=6.3 windows 10 enterprise n (build 26100) ;
FRU=mdc_ugii_v7.0_djl_can_vrh;
APPL=unigraphics;
SITE=unknown;
USER=ASRC;
FORMAT=text;
GUISE=transmit;
KEY=WingBody;
FILE=C:\Users\ASRC\Desktop\WingBody.x_t;
DATE=14-sep-2025;
**PART2;
SCH=SCH_2700178_26105;
USFLD_SIZE=0;
**PART3;
**END_OF_HEADER*****************************************************************
T51 : TRANSMIT FILE created by modeller version 270017823 SCH_2700178_26105_1300
6196 0 10 255 1 2 0 0 0 0 0 0 0 1e3 1e-8 0 0 0 1 0 1 2 11 255 2 2 0 1 3 0 1 4 0
 0 0 12 30 CCCCCCCCCCCCCDI5 owner1040 0 CCCCCCCCCA13 boundary_mesh1006 0 A16 ind
ex_map_offset0 0 1 dA9 index_map82 0 A17 node_id_index_map82 0 A20 schema_embedd
ing_map82 0 A5 child12 0 A14 lowest_node_id0 0 1 dZ3 218 5 6 0 0 0 0 1e3 1e-8 2
 7 0 1 0 1 1 8 9 10 11 12 13 14 0 0 0 0 0 0 0 11 4 1 0 1 7 0 1 0 2 0 0 12 7 94 1
5 16 0 0 0 0 1e3 1e-8 4 0 3 1 0 1 1 17 18 19 0 20 21 0 0 0 0 0 0 0 0 81 255 1 15
 94 22 7 23 0 0 0 24 70 11 CI9 list_type0 0 1 uI10 notransmit0 0 1 lCCCDCCDI12 f
inger_index0 0 1 dI12 finger_block1012 0 CZ16 0 4 T7 0 0 6 20 1 25 25 13 255 17
 23 0 7 0 26 0 0 27 0 50 255 18 45 0 26 28 0 29 +.0295686859274096 -.00518262658
788791 -.3 0 0 1 -.985245652385132 .1711461494051115 0 137 255 19 55 0 7 30 0 31
 +32 33 0 ?19 8 CCCCCCCA5 owner12 0 Z20 24 0 7 27 0 34 V0 16 255 21 10 35 1e-5 3
6 0 37 0 0 0 7 81 1 35 83 38 21 0 0 39 40 41 17 255 36 0 42 36 36 0 43 21 44 0 +
16 37 6 39 1e-5 45 21 0 0 0 0 7 81 1 39 82 38 37 0 0 0 35 46 17 45 0 47 45 45 0
 48 37 49 0 +15 255 47 41 0 45 26 0 17 48 0 50 48 48 0 45 37 30 0 -133 255 49 52
 0 45 51 52 0 +52 .0591015929829641 -.0103444391938881 -.3 .0591015929829641 -.0
103444391938881 -.3 0 1 137 51 50 0 7 53 49 54 +32 55 0 ?137 52 53 0 7 49 30 56
 +18 57 0 ?133 30 54 0 48 52 19 0 +19 .0591015929829641 -.0103444391938881 -.3 .
0591015929829641 -.0103444391938881 -.3 0 1 141 255 56 49 56 56 52 134 255 57 0
 0 0 0 0 0 +58 59 136 255 58 2 37 2 21 5 TTF1 60 61 62 135 255 59 1 0 45 255 74
 60 -.02998059263024695 3121010519124055e-20 -.03075135310817995 .00016084656039
8146 -.0225357287179387 .001133493215437974 -.01879076607079835 .001576858834284
525 -.0149253181355633 .00196985304409924 -.00663021930102119 .00281320312058076
 .000334665525987431 .003225444177245425 .00927136758499422 .003754394129959075
 .0156387706205494 .00353848731405814 .01998184112261955 .00339122185620991 .023
264460586398 .00290181349485826 .0254369665952881 .00257791283638423 .0270048487
621522 .002100957590325065 .02806348179961685 .001778917712876745 .0287816616758
6875 .00139635394706856 .02917034779787785 .00118930661607231 .02942335961424355
 .000979283057667179 .02997864292108505 .000518345787222681 .03001602084161595 3
121010519124195e-20 .03007559061122055 -.000745145559665657 .0289068952322636 -.
001408240358833688 .02820627681584765 -.001805757484760355 .0271385260902198 -.0
02132754821769535 .02558174910152405 -.00260951584604451 .02339918351130085 -.00
2936653508099755 .0201878030507195 -.003417996886988565 .0157718812454604 -.0035
5211156667516 .00941186302335931 -.0037452698344783 .000469320262556764 -.003175
504155165165 -.00648524721557625 -.002732400446354735 -.01478454196332576 -.0018
4860714717069 -.0186447425305285 -.00143753373689986 -.02239087517821005 -.00097
6075556553297 -.02433194723662945 -.000736969346431741 -.0261896997563105 -.0004
90793834807486 -.0294295030643879 -614792579311058e-19 -.02998059263024695 31210
10519124055e-20 127 255 21 61 1 2 2 2 2 2 2 2 2 2 2 2 2 2 2 2 2 2 2 2 1 128 255
 21 62 -.03125 0 .0625 .125 .25 .375 .4375 .46875 .484375 .490625 .5 .515625 .53
125 .5625 .625 .75 .875 .9375 .96875 1 1.0625 133 53 49 0 43 63 51 0 +51 .098502
6549716068 -.0172407319898135 0 .0985026549716068 -.0172407319898135 0 0 1 141 5
4 53 54 54 51 124 255 32 14 0 64 0 28 65 +66 67 134 55 0 0 0 0 0 0 +68 69 136 68
 1 2 2 2 5 FFF1 70 71 72 135 69 1 0 45 4 70 1 1180309631007354e-33 0 11803096310
07354e-33 127 2 71 2 2 128 2 72 0 1 14 255 64 2 73 ?0 74 75 17 32 -0 0 0 74 34 5
0 28 34 0 74 32 18 76 +.0492808709569875 -.00863790228303928 0 0 0 1 -.985243516
533913 .171158444512354 0 141 65 51 77 77 32 126 255 66 TF3 3 46 4 2 5 48 2 FTF9
 3 78 79 80 81 82 125 255 67 0 1 0 1 0 1 0 1 1 PPBBPPBB????0 0 0 0 45 552 78 .09
85342203364846 -.017250987273349 0 .08539632429162 -.01495085563690248 -.1 .0722
584282467554 -.01265072400045594 -.2 .0591205322018908 -.0103505923640094 -.3 .0
984900288256558 -.01723662987639925 0 .085358024982235 -.01493841255954604 -.1 .
0722260211388142 -.0126401952426928 -.2 .0590940172953935 -.01034197792583956 -.
3 .0964698093182675 -.0165803568656038 0 .0836071680758318 -.01436964261685662 -
.1 .0707445268333962 -.01215892836810946 -.2 .0578818855909606 -.009948214119362
29 -.3 .0924178241727577 -.01528864433256045 0 .0800954475797391 -.0132501585228
4652 -.1 .0677730709867205 -.0112116727131326 -.2 .055450694393702 -.00917318690
341868 -.3 .0842954474679095 -.01278595516214408 0 .0730560310155956 -.011081225
96876776 -.1 .0618166145632816 -.00937649677539147 -.2 .0505771981109677 -.00767
176758201517 -.3 .0740963038679913 -.00978534835121198 0 .0642166559460366 -.008
48102420717452 -.1 .0543370080240818 -.00717670006313707 -.2 .04445736010212695
 -.00587237591909961 -.3 .0617955021664087 -.00638681802595665 0 .05355641329909
03 -.00553405254212832 -.1 .045317324431772 -.00468128705829999 -.2 .03707823556
445365 -.00382852157447166 -.3 .0494302625808172 -.00323167914271882 0 .04283948
30479909 -.00280108602711484 -.1 .03624870351516455 -.002370492911510855 -.2 .02
965792398233825 -.001939899795906875 -.3 .03698110238757975 -.000422991094229307
 0 .03205028873590245 -.0003665922816654 -.1 .02711947508422515 -.00031019346910
14915 -.2 .02218866143254785 -.000253794656537585 -.3 .02651278643988625 .001472
671667356012 0 .02297774824790145 .001276315445041876 -.1 .0194427100559166 .001
07995922272774 -.2 .01590767186393175 .000883603000413608 -.3 .0180679575170836
 .00251565238760986 0 .0156588965148058 .00218023206926188 -.1 .0132498355125279
8 .0018448117509139 -.2 .01084077451025016 .00150939143256592 -.3 .0127599899217
601 .002883052529764865 0 .0110586579321921 .002498645525796215 -.1 .00935732594
262408 .00211423852182757 -.2 .00765599395305606 .00172983151785892 -.3 .0090369
5915355866 .00288418573356275 0 .0078320355084359 .002499613758716355 -.1 .00662
711186331315 .002115041783869965 -.2 .00542218821819039 .00173046980902357 -.3 .
00691162512513308 .002777644736311425 0 .00599030416179939 .002406733771867395 -
.1 .0050689831984657 .00203582280742337 -.2 .004147662235132005 .001664911842979
34 -.3 .00532513245327506 .002620286763641905 0 .00461500521366735 .002270958500
651995 -.1 .003904877974059645 .001921630237662085 -.2 .003194750734451935 .0015
72301974672175 -.3 .003743225557576245 .0023754755623449 0 .00324442970123979 .0
02058907265144375 -.1 .00274563384490333 .00174233896794385 -.2 .002246837988566
875 .001425770670743328 -.3 .002458813928022755 .00203177651018807 0 .0021313494
92507865 .001760720098866615 -.1 .00180388505699297 .001489663687545154 -.2 .001
47642062147808 .001218607276223696 -.3 .001474315846813588 .001625908449277395 0
 .001276543649805072 .001409863135826302 -.1 .00107877145279656 .001193817822375
212 -.2 .000880999255788045 .000977772508924121 -.3 .000782876577501418 .0012207
23573317722 0 .000678708485006198 .001057672152712108 -.1 .000574540392510977 .0
00894620732106493 -.2 .000470372300015757 .000731569311500878 -.3 .0002019453620
72412 .000652939826704082 0 .0001750193137960905 .000565881183143538 -.1 .000148
0932655197686 .000478822539582994 -.2 .000121167217243447 .0003917638960224495 -
.3 -880123088431192e-19 -.0001220910717619516 0 -76267654390059e-18 -.0001069355
13418312 -.1 -645229999369988e-19 -917799550746723e-19 -.2 -527783454839386e-19
 -766243967310327e-19 -.3 511326607666522e-19 -.00091932243891914 0 444512993684
273e-19 -.000793803370642701 -.1 377699379702024e-19 -.000668284302366262 -.2 31
0885765719775e-19 -.000542765234089823 -.3 .000467695949073784 -.001622217539714
01 0 .000405171525932678 -.001405449609689322 -.1 .000342647102791573 -.00118868
167966464 -.2 .000280122679650467 -.000971913749639955 -.3 .001006778665463334 -
.002210273240765995 0 .000871745330305824 -.00191662385283315 -.1 .0007367119951
48313 -.001622974464900305 -.2 .000601678659990803 -.00132932507696746 -.3 .0018
1817109164588 -.00290190395999979 0 .001576104260402745 -.00251449883506469 -.1
 .001334037429159612 -.002127093710129585 -.2 .001091970597916476 -.001739688585
194485 -.3 .00292870814737635 -.003637102033133335 0 .00253725399581375 -.003152
66550883844 -.1 .00214579984425115 -.002668228984543545 -.2 .00175434569268855 -
.00218379246024865 -.3 .00479891224873573 -.00465194164245058 0 .004159560845848
175 -.004031324912517695 -.1 .00352020944296062 -.003410708182584805 -.2 .002880
85804007307 -.00279009145265192 -.3 .00723972402023701 -.00571251741211357 0 .00
627352551979242 -.0049524666764963 -.1 .00530732701934784 -.00419241594087904 -.
2 .004341128518903255 -.003432365205261775 -.3 .01124541187678126 -.007148278518
81206 0 .0097465587879867 -.00619421424853671 -.1 .00824770569919212 -.005240149
97826135 -.2 .00674885261039755 -.004286085707985995 -.3 .01636221669414955 -.00
860574276254154 0 .0141805878015963 -.00745831039420267 -.1 .01199895890904302 -
.00631087802586379 -.2 .00981733001648974 -.00516344565752492 -.3 .0246578157294
9255 -.01049933300998562 0 .0213701069655602 -.00909942194198755 -.1 .0180823982
0162785 -.00769951087398946 -.2 .01479468943769552 -.00629959980599138 -.3 .0351
449921224458 -.01228705052109194 0 .03045899317278635 -.0106487771182797 -.1 .02
577299422312695 -.00901050371546743 -.2 .0210869952734675 -.00737223031265517 -.
3 .0478052561807628 -.0138958481852381 0 .04143122202332775 -.01204306842720634
 -.1 .0350571878658927 -.0101902886691746 -.2 .02868315370845765 -.0083375089111
4285 -.3 .060503341373209 -.0151616039821408 0 .0524362291901145 -.0131400567845
2204 -.1 .04436911700701995 -.01111850958690328 -.2 .03630200482392545 -.0090969
623892845 -.3 .0732255843671576 -.0161632184529753 0 .0634621731182032 -.0140081
2265924524 -.1 .0536987618692489 -.0118530268655152 -.2 .0439353506202945 -.0096
9793107178517 -.3 .0838383480892165 -.0168303587718962 0 .0726599016773209 -.014
58631093564336 -.1 .0614814552654254 -.01234226309939054 -.2 .0503030088535299 -
.0100982152631377 -.3 .0912733253165291 -.01720122487125315 0 .0791035486076585
 -.01490772822175272 -.1 .066933771898788 -.0126142315722523 -.2 .05476399518991
74 -.01032073492275188 -.3 .0949911065160446 -.01735787896377565 0 .082325625647
2387 -.0150434951019389 -.1 .0696601447784328 -.01272911124010214 -.2 .056994663
9096268 -.0104147273782654 -.3 .0968516615312386 -.0174319736597046 0 .083938106
6604068 -.0151077105050773 -.1 .071024551789575 -.01278344735045002 -.2 .0581109
969187432 -.01045918419582274 -.3 .0977799448999787 -.0174626867540253 0 .084742
6189133149 -.01513432852015525 -.1 .0717052929266511 -.0128059702862852 -.2 .058
6679669399873 -.01047761205241516 -.3 .0982137445171911 -.0174828743303719 0 .08
51185785815656 -.01515182441965565 -.1 .0720234126459401 -.01282077450893938 -.2
 .0589282467103146 -.01048972459822312 -.3 .0984106656574031 -.0174845994176475
 0 .0852892435697493 -.0151533194952945 -.1 .0721678214820956 -.0128220395729415
 -.2 .0590463993944418 -.0104907596505885 -.3 .0985128734339581 -.01750599022063
335 0 .0853778236427637 -.0151718581912156 -.1 .0722427738515693 -.0128377261617
978 -.2 .0591077240603749 -.01050359413238002 -.3 .0985595046985115 -.0173452018
673548 0 .0854182374053766 -.0150325082850408 -.1 .0722769701122418 -.0127198147
0272684 -.2 .0591357028191069 -.01040712112041288 -.3 .0985342203364846 -.017250
987273349 0 .08539632429162 -.01495085563690248 -.1 .0722584282467554 -.01265072
400045594 -.2 .0591205322018908 -.0103505923640094 -.3 .0984900288256558 -.01723
662987639925 0 .085358024982235 -.01493841255954604 -.1 .0722260211388142 -.0126
401952426928 -.2 .0590940172953935 -.01034197792583956 -.3 127 48 79 1 1 2 1 1 1
 1 1 1 1 1 1 1 1 1 1 1 1 1 1 1 1 1 1 1 1 1 1 1 1 1 1 1 1 1 1 1 1 1 1 1 1 1 1 1 2
 1 1 127 2 80 4 4 128 48 81 -.0009765625 -.00048828125 0 .0001953125 .03125 .062
5 .125 .1875 .25 .3125 .375 .40625 .4375 .453125 .4609375 .46875 .4765625 .48437
5 .48828125 .4921875 .49609375 .5 .50390625 .5078125 .51171875 .515625 .5234375
 .53125 .546875 .5625 .59375 .625 .6875 .75 .8125 .875 .9375 .96875 .984375 .992
1875 .99609375 .998046875 .99853515625 .9990234375 .99951171875 1 1.0001953125 1
.03125 128 2 82 0 1 141 77 19 65 65 32 14 74 28 83 ?64 26 42 17 28 +0 0 64 26 34
 141 76 63 76 76 28 137 63 48 0 7 44 53 84 +28 85 0 ?133 44 47 0 36 0 63 0 +63 .
0985026549716069 -.0172407319898135 0 .0985026549716069 -.0172407319898135 0 0 1
 141 84 44 84 84 63 134 85 0 0 0 0 0 0 +86 87 136 86 2 31 2 18 5 TTF1 88 89 90 1
35 87 1 0 45 62 88 -.0499678905236525 511582043793356e-19 -.0379631397299615 -.0
01666628058967835 -.024641254615021 -.00308189097446561 -.01080547659523684 -.00
455174778298135 .000782030989349791 -.00529273224266076 .01564646733481635 -.006
24326593193622 .02628630712516265 -.00592009298781646 .03364420898884515 -.00569
660514827323 .03899847725142825 -.00489419557810191 .04265525888011585 -.0043461
7735581918 .045230792756364 -.00355443229777008 .0470345098627942 -.002999951489
614255 .0481770591970914 -.0023460110699454 .0501244566842087 -.0012314141840517
48 .0500268300914967 511582043793269e-19 .0499340850847274 .001269598606146356 .
0479686820724915 .002327055473208485 .0468048920266304 .002953215995072305 .0450
074724898399 .003501543999883355 .04245202765357145 .00428111823939443 .03877387
42804641 .004836803706609 .03339847084521285 .00564890512446284 .026064308608143
05 .00589756904395231 .01545355859758575 .00625732529164095 .000557473296761799
 .00537551217654408 -.01104909059433156 .00468843097006027 -.02487580668912955 .
003282542899705925 -.0313166343042699 .00262764533435116 -.03755980693020405 .00
18884515650989 -.0513758542854394 .0002526268438249135 -.0499678905236525 511582
043793356e-19 127 18 89 1 2 2 2 2 2 2 2 2 2 2 2 2 2 2 2 2 1 128 18 90 -.0625 0 .
125 .25 .375 .4375 .46875 .484375 .5 .515625 .53125 .5625 .625 .75 .875 .9375 1
 1.125 81 1 83 91 91 74 92 0 93 73 94 14 26 39 93 ?74 0 47 17 18 -0 0 74 0 34 15
 42 30 0 36 74 0 13 34 3 0 0 0 0 0 0 20 26 81 1 93 89 91 26 95 0 0 83 96 80 255
 1 91 0 97 8001 0 0 0 0 3 5 0 0 0 FFFFTFTFFFFFFF2 81 1 95 88 98 26 99 93 0 92 10
0 83 255 3 96 .5960784 .6666667 .6862745 80 1 98 101 102 8015 0 0 0 0 3 5 0 0 0
 FFFFTFFFFFFFFF2 81 1 99 86 38 26 0 95 103 0 104 81 1 92 90 98 74 40 83 95 105 1
06 83 1 100 0 81 1 40 84 38 74 0 92 35 103 107 81 1 105 92 98 64 103 73 92 0 108
 83 1 106 0 81 1 103 85 38 64 0 105 40 99 109 81 1 73 93 91 64 105 0 83 0 110 83
 1 108 0 83 3 110 .5960784 .6666667 .6862745 80 1 38 111 112 9000 1 1 1 1 1 1 1
 1 0 FFFFTFTFFFFFFF3 84 255 32 109 458e340a94ca226dfadc0ab65b32008279 255 15 112
 UGS/ObjectState84 32 107 dedd217710d701eadec09aabe81d2e2a84 32 104 6edfce485ce7
9cba372a3564dace212d79 21 102 SDL/TYSA_TRANSLUCENCY79 15 97 SDL/TYSA_COLOUR83 3
 94 .5960784 .6666667 .6862745 15 75 11 0 43 64 50 17 43 0 75 43 43 0 36 21 53 0
 -15 50 7 0 48 64 0 84 32 46 ceeafaaece69e19b6faf1fd03f42ebfb84 32 41 d745216e79
7e3168c4f76e04a59ce0ba19 27 5 0 7 0 20 17 S0 141 31 30 31 31 19 134 33 0 0 0 0 0
 0 +113 114 136 113 1 2 2 2 5 FFF1 115 116 117 135 114 1 0 45 4 115 0 1 1 1 127
 2 116 2 2 128 2 117 0 1 141 29 52 29 29 18 74 4 CI16 index_map_offset0 0 1 dCCZ
20 25 6 0 0 118 99 23 105 73 15 0 0 0 0 0 0 0 0 0 0 0 0 0 0 81 2 118 81 119 7 0
 23 0 0 120 121 81 1 23 87 122 7 118 15 0 0 123 80 1 122 124 125 9000 0 0 0 0 3
 5 0 0 0 FFTFFFFFFFFFFF1 82 255 1 123 10 79 7 125 body_id80 2 119 126 127 8004 0
 0 0 0 3 5 0 0 0 FFTFFFFFFFFFFF2 3 83 1 120 7830.64 84 8 121 Kg/Cu M 79 16 127 S
DL/TYSA_DENSITY80 1 22 128 129 9000 0 0 0 0 3 5 0 0 0 FFTFFFFFFFFFFF1 82 1 24 12
9 79 24 129 UG2/BODY_COLOR_ATTRIBUTE81 1 5 218 22 3 130 0 0 0 131 70 6 0 4 T3 0
 0 6 20 1 132 132 13 8 3 0 3 0 133 0 0 134 0 50 9 90 0 135 136 0 0 +.7 .35 -1 16
65334536937735e-31 1 0 -1 1665334536937735e-31 0 137 10 138 0 3 137 0 138 +139 1
40 0 ?29 255 11 67 0 141 142 0 .7 -.35 0 19 12 1 0 3 134 0 143 V0 16 13 73 144 ?
145 0 146 147 0 0 3 18 255 14 15 0 148 0 149 150 ?3 17 148 0 151 152 153 14 154
 155 0 156 -18 149 10 0 157 14 158 159 ?3 29 150 17 0 14 159 160 .7 -.35 -1 29 1
59 12 0 149 161 150 -.3 -.35 -1 29 160 70 0 162 150 163 .7 .35 0 18 162 60 0 164
 165 0 160 ?3 29 163 69 0 165 160 142 -.3 .35 0 18 165 58 0 145 166 162 163 ?3 2
9 142 68 0 166 163 11 -.3 -.35 0 18 166 56 0 167 141 165 142 ?3 17 167 0 168 169
 170 166 157 146 0 171 +18 141 54 0 154 172 166 11 ?3 17 154 0 173 171 156 141 1
48 155 0 153 +18 172 2 0 174 158 141 175 ?3 17 174 0 176 177 178 172 164 179 0 1
52 -18 158 5 0 180 149 172 161 ?3 29 175 4 0 172 0 161 .7 .35 -1 29 161 7 0 158
 175 159 -.3 .35 -1 17 180 0 168 170 169 158 145 13 0 181 -15 168 79 0 169 182 0
 17 170 0 168 167 180 149 181 183 0 184 +17 169 0 168 180 167 165 185 186 0 187
 -17 145 0 176 178 177 165 180 13 0 169 +17 181 0 188 189 184 158 170 183 0 177
 -15 188 23 0 189 190 0 17 189 0 188 191 181 172 177 192 0 0 -17 184 0 188 181 1
91 149 156 193 0 0 -16 183 11 194 ?170 193 192 195 0 0 3 17 177 0 176 145 174 15
8 189 192 0 0 +15 176 81 0 178 135 0 16 192 6 196 ?177 183 197 198 0 0 3 81 1 19
6 121 38 192 0 0 199 200 201 16 197 46 202 ?203 192 204 205 0 0 3 30 255 198 9 0
 192 206 195 0 +.7 .35 -1 -1 1665334536937735e-31 0 137 206 172 0 3 207 198 208
 -209 210 0 ?30 195 14 0 183 198 211 0 +-.3 .35 -1 -793016446160826e-31 -1 0 30
 211 19 0 193 195 212 0 +-.3 -.35 -1 1 -1110223024625156e-31 0 16 193 16 213 ?15
6 214 183 211 0 0 3 30 212 22 0 214 211 215 0 +.7 -.35 -1 158603289232165e-30 1
 0 16 214 20 200 ?152 179 193 212 0 0 3 30 215 66 0 216 212 217 0 +.7 .35 0 -1 1
665334536937735e-31 0 16 216 52 199 ?187 186 218 215 0 0 3 30 217 65 0 186 215 2
19 0 +-.3 .35 0 -793016446160826e-31 -1 0 16 186 50 220 ?185 204 216 217 0 0 3 3
0 219 64 0 204 217 205 0 +-.3 -.35 0 1 -1110223024625156e-31 0 16 204 48 221 ?22
2 197 186 219 0 0 3 30 205 63 0 197 219 223 0 +.7 -.35 0 158603289232165e-30 1 0
 30 223 83 0 155 205 224 0 +.7 -.35 -1 0 0 1 16 155 71 225 ?154 146 179 223 0 0
 3 30 224 84 0 146 223 147 0 +-.3 -.35 -1 0 0 1 16 146 72 226 ?167 13 155 224 0
 0 3 30 147 85 0 13 224 227 0 +-.3 .35 -1 0 0 1 30 227 86 0 179 147 137 0 +.7 .3
5 -1 0 0 1 16 179 74 228 ?164 155 214 227 0 0 3 133 137 137 0 229 227 10 0 +10 .
0985026549716068 -.0172407319898135 0 .0985026549716068 -.0172407319898135 0 0 1
 17 229 0 230 229 229 0 231 218 137 0 -15 230 133 0 229 133 0 17 231 0 232 231 2
31 0 229 218 233 0 +16 218 150 234 1e-5 231 216 235 0 0 0 3 81 1 234 196 38 218
 0 0 236 237 238 16 235 148 237 1e-5 239 218 0 0 0 0 3 81 1 237 197 38 235 0 0 2
34 240 241 17 239 0 242 239 239 0 243 235 244 0 +15 242 157 0 239 245 0 17 243 0
 246 243 243 0 239 235 207 0 -133 244 175 0 239 247 248 0 +248 .0591015929829641
 -.0103444391938881 -.3 .0591015929829641 -.0103444391938881 -.3 0 -1 137 247 17
6 0 3 233 244 249 -209 250 0 ?137 248 174 0 3 244 207 251 -252 253 0 ?133 207 17
3 0 243 248 206 0 +206 .0591015929829641 -.0103444391938881 -.3 .059101592982964
1 -.0103444391938881 -.3 0 -1 141 251 244 251 251 248 50 252 169 0 245 209 254 2
55 +.0295686859274096 -.00518262658788791 -.3 0 0 1 -.985245652385132 .171146149
4051115 0 134 253 0 0 0 0 0 0 +256 257 136 256 2 37 2 21 5 TTF1 258 259 260 135
 257 1 0 45 74 258 -.02998059263024695 3121010519124055e-20 -.03075135310817995
 .000160846560398146 -.0225357287179387 .001133493215437974 -.01879076607079835
 .001576858834284525 -.0149253181355633 .00196985304409924 -.00663021930102119 .
00281320312058076 .000334665525987431 .003225444177245425 .00927136758499422 .00
3754394129959075 .0156387706205494 .00353848731405814 .01998184112261955 .003391
22185620991 .023264460586398 .00290181349485826 .0254369665952881 .0025779128363
8423 .0270048487621522 .002100957590325065 .02806348179961685 .00177891771287674
5 .02878166167586875 .00139635394706856 .02917034779787785 .00118930661607231 .0
2942335961424355 .000979283057667179 .02997864292108505 .000518345787222681 .030
01602084161595 3121010519124195e-20 .03007559061122055 -.000745145559665657 .028
9068952322636 -.001408240358833688 .02820627681584765 -.001805757484760355 .0271
385260902198 -.002132754821769535 .02558174910152405 -.00260951584604451 .023399
18351130085 -.002936653508099755 .0201878030507195 -.003417996886988565 .0157718
812454604 -.00355211156667516 .00941186302335931 -.0037452698344783 .00046932026
2556764 -.003175504155165165 -.00648524721557625 -.002732400446354735 -.01478454
196332576 -.00184860714717069 -.0186447425305285 -.00143753373689986 -.022390875
17821005 -.000976075556553297 -.02433194723662945 -.000736969346431741 -.0261896
997563105 -.000490793834807486 -.0294295030643879 -614792579311058e-19 -.0299805
9263024695 3121010519124055e-20 127 21 259 1 2 2 2 2 2 2 2 2 2 2 2 2 2 2 2 2 2 2
 2 1 128 21 260 -.03125 0 .0625 .125 .25 .375 .4375 .46875 .484375 .490625 .5 .5
15625 .53125 .5625 .625 .75 .875 .9375 .96875 1 1.0625 14 245 154 261 ?262 190 2
42 8 252 +0 0 262 190 143 124 209 171 0 262 0 252 263 +264 265 50 254 25 0 190 2
52 139 0 +0 0 -1 0 0 1 1 0 0 141 255 248 255 255 252 14 190 24 266 ?245 267 188
 8 254 -0 0 245 267 143 50 139 62 0 133 254 268 269 +0 0 0 0 0 1 1 0 0 14 133 42
 270 ?135 0 271 8 139 +0 0 135 0 143 50 268 87 0 267 139 272 0 +.7 -.35 -1 1 -15
8603289232165e-30 0 158603289232165e-30 1 0 141 269 10 269 269 139 14 267 76 273
 ?190 274 151 8 268 +0 0 190 274 143 50 272 88 0 274 268 136 0 +-.3 -.35 -1 -111
0223024625156e-31 -1 0 1 -1110223024625156e-31 0 14 274 78 275 ?267 182 173 8 27
2 +0 0 267 182 143 50 136 89 0 182 272 9 0 +-.3 .35 -1 -1 793016446160826e-31 0
 -793016446160826e-31 -1 0 14 182 80 276 ?274 135 168 8 136 +0 0 274 135 143 81
 1 276 207 91 182 277 0 278 275 279 14 135 82 278 ?182 133 176 8 9 +0 0 182 133
 143 13 143 91 0 0 0 0 0 0 12 133 81 1 278 205 91 135 280 0 270 276 281 81 1 280
 204 98 135 282 278 283 277 284 81 1 270 203 91 133 283 0 0 278 285 83 3 281 .59
60784 .6666667 .6862745 81 1 283 202 98 133 240 270 0 280 286 83 3 285 .5960784
 .6666667 .6862745 81 1 240 198 38 133 0 283 237 287 288 83 1 286 0 81 1 287 199
 38 262 0 289 240 290 291 84 32 288 d89cb616074794cd0ad78a6593f361a014 262 162 2
92 ?0 245 232 8 209 +0 0 0 245 143 81 1 289 216 98 262 287 292 293 0 294 81 1 29
0 200 38 245 0 293 287 0 295 84 32 291 bc1ec77d4bc4ed184455ed91317b21cd81 1 293
 214 98 245 290 261 296 289 297 84 32 295 20d0a04620fe8078d4cea75f0de463ae81 1 2
61 215 91 245 293 0 266 292 298 81 1 296 212 98 190 299 266 300 293 301 83 1 297
 0 81 1 299 125 38 190 0 296 302 282 303 81 1 266 213 91 190 296 0 273 261 304 8
1 1 300 210 98 267 302 273 305 296 306 83 1 301 0 81 1 302 124 38 267 0 300 228
 299 307 81 1 273 211 91 267 300 0 275 266 308 81 1 305 208 98 274 236 275 277 3
00 309 83 1 306 0 81 1 236 129 38 274 0 305 310 234 311 81 1 275 209 91 274 305
 0 276 273 312 81 1 277 206 98 182 310 276 280 305 313 83 1 309 0 81 1 310 127 3
8 182 0 277 282 236 314 83 1 313 0 81 1 282 126 38 135 0 280 299 310 315 84 32 3
14 944b56bf7f1863d8117208068d4326f684 32 315 ab6e6c3372985aa3e03b0332222cfd9683
 3 312 .5960784 .6666667 .6862745 84 32 311 f186e2ab5f1b1f9c99b77e7accdc6b7a83 3
 308 .5960784 .6666667 .6862745 81 1 228 123 38 179 0 0 200 302 316 84 32 307 5e
e5441862a74a0f217f88144f22dc0081 1 200 122 38 214 0 0 196 228 317 84 32 316 f142
98c82b6cc6b0b7741efb53c0f39584 32 317 16cafe9a6f43e357b03daa90c34d40b483 3 304 .
5960784 .6666667 .6862745 84 32 303 e9568d543b17ac93e662b962816648dc81 1 292 217
 91 262 289 0 261 0 318 83 3 298 .5960784 .6666667 .6862745 83 3 318 .5960784 .6
666667 .6862745 83 1 294 0 15 232 165 0 231 262 246 15 246 166 0 243 262 0 83 1
 284 0 83 3 279 .5960784 .6666667 .6862745 15 173 77 0 171 274 0 17 171 0 173 15
7 154 166 222 204 0 185 -17 157 0 173 156 171 149 167 146 0 170 -17 222 0 271 20
3 185 141 171 204 0 0 +17 185 0 271 222 187 166 169 186 0 0 +15 271 45 0 187 133
 230 17 187 0 271 185 203 165 178 216 0 0 +17 203 0 271 187 222 162 153 197 0 17
8 +17 178 0 176 174 145 162 187 216 0 0 -17 153 0 151 148 164 141 203 197 0 222
 -15 151 75 0 153 267 0 17 164 0 151 153 152 162 174 179 0 203 +17 152 0 151 164
 148 172 191 214 0 189 +17 191 0 188 184 189 14 152 214 0 0 -17 156 0 173 154 15
7 14 184 193 0 191 +141 263 247 319 319 209 126 264 TF3 3 46 4 2 5 48 2 FTF9 3 3
20 321 322 323 324 125 265 0 1 0 1 0 1 0 1 1 PPBBPPBB????0 0 0 0 45 552 320 .098
5342203364846 -.017250987273349 0 .08539632429162 -.01495085563690248 -.1 .07225
84282467554 -.01265072400045594 -.2 .0591205322018908 -.0103505923640094 -.3 .09
84900288256558 -.01723662987639925 0 .085358024982235 -.01493841255954604 -.1 .0
722260211388142 -.0126401952426928 -.2 .0590940172953935 -.01034197792583956 -.3
 .0964698093182675 -.0165803568656038 0 .0836071680758318 -.01436964261685662 -.
1 .0707445268333962 -.01215892836810946 -.2 .0578818855909606 -.0099482141193622
9 -.3 .0924178241727577 -.01528864433256045 0 .0800954475797391 -.01325015852284
652 -.1 .0677730709867205 -.0112116727131326 -.2 .055450694393702 -.009173186903
41868 -.3 .0842954474679095 -.01278595516214408 0 .0730560310155956 -.0110812259
6876776 -.1 .0618166145632816 -.00937649677539147 -.2 .0505771981109677 -.007671
76758201517 -.3 .0740963038679913 -.00978534835121198 0 .0642166559460366 -.0084
8102420717452 -.1 .0543370080240818 -.00717670006313707 -.2 .04445736010212695 -
.00587237591909961 -.3 .0617955021664087 -.00638681802595665 0 .0535564132990903
 -.00553405254212832 -.1 .045317324431772 -.00468128705829999 -.2 .0370782355644
5365 -.00382852157447166 -.3 .0494302625808172 -.00323167914271882 0 .0428394830
479909 -.00280108602711484 -.1 .03624870351516455 -.002370492911510855 -.2 .0296
5792398233825 -.001939899795906875 -.3 .03698110238757975 -.000422991094229307 0
 .03205028873590245 -.0003665922816654 -.1 .02711947508422515 -.0003101934691014
915 -.2 .02218866143254785 -.000253794656537585 -.3 .02651278643988625 .00147267
1667356012 0 .02297774824790145 .001276315445041876 -.1 .0194427100559166 .00107
995922272774 -.2 .01590767186393175 .000883603000413608 -.3 .0180679575170836 .0
0251565238760986 0 .0156588965148058 .00218023206926188 -.1 .01324983551252798 .
0018448117509139 -.2 .01084077451025016 .00150939143256592 -.3 .0127599899217601
 .002883052529764865 0 .0110586579321921 .002498645525796215 -.1 .00935732594262
408 .00211423852182757 -.2 .00765599395305606 .00172983151785892 -.3 .0090369591
5355866 .00288418573356275 0 .0078320355084359 .002499613758716355 -.1 .00662711
186331315 .002115041783869965 -.2 .00542218821819039 .00173046980902357 -.3 .006
91162512513308 .002777644736311425 0 .00599030416179939 .002406733771867395 -.1
 .0050689831984657 .00203582280742337 -.2 .004147662235132005 .00166491184297934
 -.3 .00532513245327506 .002620286763641905 0 .00461500521366735 .00227095850065
1995 -.1 .003904877974059645 .001921630237662085 -.2 .003194750734451935 .001572
301974672175 -.3 .003743225557576245 .0023754755623449 0 .00324442970123979 .002
058907265144375 -.1 .00274563384490333 .00174233896794385 -.2 .00224683798856687
5 .001425770670743328 -.3 .002458813928022755 .00203177651018807 0 .002131349492
507865 .001760720098866615 -.1 .00180388505699297 .001489663687545154 -.2 .00147
642062147808 .001218607276223696 -.3 .001474315846813588 .001625908449277395 0 .
001276543649805072 .001409863135826302 -.1 .00107877145279656 .00119381782237521
2 -.2 .000880999255788045 .000977772508924121 -.3 .000782876577501418 .001220723
573317722 0 .000678708485006198 .001057672152712108 -.1 .000574540392510977 .000
894620732106493 -.2 .000470372300015757 .000731569311500878 -.3 .000201945362072
412 .000652939826704082 0 .0001750193137960905 .000565881183143538 -.1 .00014809
32655197686 .000478822539582994 -.2 .000121167217243447 .0003917638960224495 -.3
 -880123088431192e-19 -.0001220910717619516 0 -76267654390059e-18 -.000106935513
418312 -.1 -645229999369988e-19 -917799550746723e-19 -.2 -527783454839386e-19 -7
66243967310327e-19 -.3 511326607666522e-19 -.00091932243891914 0 444512993684273
e-19 -.000793803370642701 -.1 377699379702024e-19 -.000668284302366262 -.2 31088
5765719775e-19 -.000542765234089823 -.3 .000467695949073784 -.00162221753971401
 0 .000405171525932678 -.001405449609689322 -.1 .000342647102791573 -.0011886816
7966464 -.2 .000280122679650467 -.000971913749639955 -.3 .001006778665463334 -.0
02210273240765995 0 .000871745330305824 -.00191662385283315 -.1 .000736711995148
313 -.001622974464900305 -.2 .000601678659990803 -.00132932507696746 -.3 .001818
17109164588 -.00290190395999979 0 .001576104260402745 -.00251449883506469 -.1 .0
01334037429159612 -.002127093710129585 -.2 .001091970597916476 -.001739688585194
485 -.3 .00292870814737635 -.003637102033133335 0 .00253725399581375 -.003152665
50883844 -.1 .00214579984425115 -.002668228984543545 -.2 .00175434569268855 -.00
218379246024865 -.3 .00479891224873573 -.00465194164245058 0 .004159560845848175
 -.004031324912517695 -.1 .00352020944296062 -.003410708182584805 -.2 .002880858
04007307 -.00279009145265192 -.3 .00723972402023701 -.00571251741211357 0 .00627
352551979242 -.0049524666764963 -.1 .00530732701934784 -.00419241594087904 -.2 .
004341128518903255 -.003432365205261775 -.3 .01124541187678126 -.007148278518812
06 0 .0097465587879867 -.00619421424853671 -.1 .00824770569919212 -.005240149978
26135 -.2 .00674885261039755 -.004286085707985995 -.3 .01636221669414955 -.00860
574276254154 0 .0141805878015963 -.00745831039420267 -.1 .01199895890904302 -.00
631087802586379 -.2 .00981733001648974 -.00516344565752492 -.3 .0246578157294925
5 -.01049933300998562 0 .0213701069655602 -.00909942194198755 -.1 .0180823982016
2785 -.00769951087398946 -.2 .01479468943769552 -.00629959980599138 -.3 .0351449
921224458 -.01228705052109194 0 .03045899317278635 -.0106487771182797 -.1 .02577
299422312695 -.00901050371546743 -.2 .0210869952734675 -.00737223031265517 -.3 .
0478052561807628 -.0138958481852381 0 .04143122202332775 -.01204306842720634 -.1
 .0350571878658927 -.0101902886691746 -.2 .02868315370845765 -.00833750891114285
 -.3 .060503341373209 -.0151616039821408 0 .0524362291901145 -.01314005678452204
 -.1 .04436911700701995 -.01111850958690328 -.2 .03630200482392545 -.00909696238
92845 -.3 .0732255843671576 -.0161632184529753 0 .0634621731182032 -.01400812265
924524 -.1 .0536987618692489 -.0118530268655152 -.2 .0439353506202945 -.00969793
107178517 -.3 .0838383480892165 -.0168303587718962 0 .0726599016773209 -.0145863
1093564336 -.1 .0614814552654254 -.01234226309939054 -.2 .0503030088535299 -.010
0982152631377 -.3 .0912733253165291 -.01720122487125315 0 .0791035486076585 -.01
490772822175272 -.1 .066933771898788 -.0126142315722523 -.2 .0547639951899174 -.
01032073492275188 -.3 .0949911065160446 -.01735787896377565 0 .0823256256472387
 -.0150434951019389 -.1 .0696601447784328 -.01272911124010214 -.2 .0569946639096
268 -.0104147273782654 -.3 .0968516615312386 -.0174319736597046 0 .0839381066604
068 -.0151077105050773 -.1 .071024551789575 -.01278344735045002 -.2 .05811099691
87432 -.01045918419582274 -.3 .0977799448999787 -.0174626867540253 0 .0847426189
133149 -.01513432852015525 -.1 .0717052929266511 -.0128059702862852 -.2 .0586679
669399873 -.01047761205241516 -.3 .0982137445171911 -.0174828743303719 0 .085118
5785815656 -.01515182441965565 -.1 .0720234126459401 -.01282077450893938 -.2 .05
89282467103146 -.01048972459822312 -.3 .0984106656574031 -.0174845994176475 0 .0
852892435697493 -.0151533194952945 -.1 .0721678214820956 -.0128220395729415 -.2
 .0590463993944418 -.0104907596505885 -.3 .0985128734339581 -.01750599022063335
 0 .0853778236427637 -.0151718581912156 -.1 .0722427738515693 -.0128377261617978
 -.2 .0591077240603749 -.01050359413238002 -.3 .0985595046985115 -.0173452018673
548 0 .0854182374053766 -.0150325082850408 -.1 .0722769701122418 -.0127198147027
2684 -.2 .0591357028191069 -.01040712112041288 -.3 .0985342203364846 -.017250987
273349 0 .08539632429162 -.01495085563690248 -.1 .0722584282467554 -.01265072400
045594 -.2 .0591205322018908 -.0103505923640094 -.3 .0984900288256558 -.01723662
987639925 0 .085358024982235 -.01493841255954604 -.1 .0722260211388142 -.0126401
952426928 -.2 .0590940172953935 -.01034197792583956 -.3 127 48 321 1 1 2 1 1 1 1
 1 1 1 1 1 1 1 1 1 1 1 1 1 1 1 1 1 1 1 1 1 1 1 1 1 1 1 1 1 1 1 1 1 1 1 1 1 1 2 1
 1 127 2 322 4 4 128 48 323 -.0009765625 -.00048828125 0 .0001953125 .03125 .062
5 .125 .1875 .25 .3125 .375 .40625 .4375 .453125 .4609375 .46875 .4765625 .48437
5 .48828125 .4921875 .49609375 .5 .50390625 .5078125 .51171875 .515625 .5234375
 .53125 .546875 .5625 .59375 .625 .6875 .75 .8125 .875 .9375 .96875 .984375 .992
1875 .99609375 .998046875 .99853515625 .9990234375 .99951171875 1 1.0001953125 1
.03125 128 2 324 0 1 141 319 206 263 263 209 133 233 177 0 231 0 247 0 +247 .098
5026549716068 -.0172407319898135 0 .0985026549716068 -.0172407319898135 0 0 -1 1
41 249 233 249 249 247 134 250 0 0 0 0 0 0 +325 326 136 325 1 2 2 2 5 FFF1 327 3
28 329 135 326 1 0 45 4 327 1 1180309631007354e-33 0 1180309631007354e-33 127 2
 328 2 2 128 2 329 0 1 84 32 241 ceeafaaece69e19b6faf1fd03f42ebfb84 32 238 cb90d
e60bffeda7a2050574c8897c35481 1 226 118 38 146 0 0 220 144 330 81 1 220 117 38 1
86 0 0 225 226 331 81 1 144 119 38 13 0 0 226 199 332 84 32 330 f98d6a3b245c21e7
394cf8a5bc67837081 1 199 120 38 216 0 0 144 196 333 84 32 332 2ea9baa377e8420ace
736f7502b1782084 32 333 bcf47ddf2004a213369e0d5763a0ab0d81 1 225 116 38 155 0 0
 221 220 334 84 32 331 d74d2fb6921f48404a1dbbaa1aa42b5781 1 221 115 38 204 0 0 1
94 225 335 84 32 334 38b3e299c2b1d6283a1967b8389abce481 1 194 114 38 183 0 0 202
 221 336 84 32 335 35426626f8238d7023269c04b1670b4e81 1 202 113 38 197 0 0 213 1
94 337 84 32 336 27d141cf54be1459d8989fd6a3bdb69181 1 213 112 38 193 0 0 0 202 3
38 84 32 337 59830d1649bfaf8ad3f100f40131820684 32 338 e20d993cddf6c6fc171985b06
4e7a498141 208 207 208 208 206 134 210 0 0 0 0 0 0 +339 340 136 339 1 2 2 2 5 FF
F1 341 342 343 135 340 1 0 45 4 341 0 1 1 1 127 2 342 2 2 128 2 343 0 1 84 32 20
1 09317298b549484cef8c2592675a7a8919 134 92 0 3 0 12 8 S0 141 138 137 138 138 10
 134 140 0 0 0 0 0 0 +344 345 136 344 2 37 2 21 5 TTF1 346 347 348 135 345 1 0 4
5 74 346 .0985026549716068 -.0172407319898135 .0997782822625095 -.01767601216028
62 .0859632027848173 -.01692716507419935 .0796868260271075 -.01658695375266595 .
0732277632792446 -.0161297107716204 .0593656275472348 -.01514839745834445 .04781
15597031177 -.01383867454069752 .0329855411410208 -.0121580563765828 .0225917611
4390845 -.00998731742824469 .0154095651883626 -.00848731718775168 .0102513029124
244 -.0067668557661612 .00672367148784973 -.00559026693625972 .00433823166638269
 -.00438436682398903 .002662239642520195 -.003537110501883365 .0016217427533004
 -.00272037359179743 -.0001327688400170246 -.00134317161043396 -1649520208890215
e-20 -.000125791149877144 .00010572517631592 .001153851451860908 .00221627534292
3265 .001919400426694965 .003452795997989625 .002367917185417105 .00532589674930
16 .002605711225537325 .00799777822899674 .002944912142163985 .0116955569926097
 .00285899088363944 .0171069406679833 .00273325245376837 .02439573119546495 .001
693954390001605 .03493269918165415 .000191503416176949 .0494162758128762 -.00328
9420948510205 .06070477462279 -.0060024532021225 .0740859989710445 -.00981904799
252251 .0802476909964692 -.01157648670457522 .0863272004877495 -.013421449955377
96 .0894493762324544 -.01436894407801894 .0924266333679794 -.01530219342117305 .
0936540923881006 -.0156869520335912 .0948604840353003 -.0160704082787364 .097961
6539864085 -.01705612712698055 .0985026549716068 -.0172407319898135 127 21 347 1
 2 2 2 2 2 2 2 2 2 2 2 2 2 2 2 2 2 2 2 1 128 21 348 -.01875 0 .0625 .125 .25 .37
5 .4375 .46875 .484375 .5 .515625 .53125 .5625 .625 .75 .875 .9375 .96875 .98125
 1 1.0625 74 20 132 6 0 0 290 349 130 289 292 5 0 0 0 0 0 0 0 0 0 0 0 0 0 0 81 2
 349 195 119 3 0 130 0 0 350 351 81 1 130 201 122 3 349 5 0 0 352 82 1 352 8 83
 1 350 7830.64 84 8 351 Kg/Cu M 82 1 131 129 1 0 
